<svg width="25" height="24" viewBox="0 0 25 24" fill="none" xmlns="http://www.w3.org/2000/svg">
<path d="M19.2481 3.60375L21.3923 5.748L12.4711 15H9.99609V12.525L19.2481 3.60375ZM19.2676 5.55938e-07C18.8701 5.55938e-07 18.4898 0.157501 18.2101 0.438001L6.99609 11.25V18H13.7461L24.5581 6.7875C25.1423 6.2025 25.1423 5.25525 24.5581 4.671L20.3258 0.438751C20.187 0.299524 20.0221 0.189092 19.8405 0.113798C19.6589 0.0385038 19.4642 -0.000169123 19.2676 5.55938e-07V5.55938e-07Z" fill="#BFC8E8"/>
<path d="M21.9961 20.25C21.9961 20.4489 21.9171 20.6397 21.7764 20.7803C21.6358 20.921 21.445 21 21.2461 21H4.74609C4.54718 21 4.35642 20.921 4.21576 20.7803C4.07511 20.6397 3.99609 20.4489 3.99609 20.25V3.75C3.99609 3.55109 4.07511 3.36032 4.21576 3.21967C4.35642 3.07902 4.54718 3 4.74609 3H8.49609C8.89392 3 9.27545 2.84197 9.55675 2.56066C9.83806 2.27936 9.99609 1.89782 9.99609 1.5C9.99609 1.10218 9.83806 0.720644 9.55675 0.43934C9.27545 0.158035 8.89392 0 8.49609 0L2.49609 0C2.09827 0 1.71674 0.158035 1.43543 0.43934C1.15413 0.720644 0.996094 1.10218 0.996094 1.5L0.996094 22.5C0.996094 22.8978 1.15413 23.2794 1.43543 23.5607C1.71674 23.842 2.09827 24 2.49609 24H23.4961C23.8939 24 24.2754 23.842 24.5568 23.5607C24.8381 23.2794 24.9961 22.8978 24.9961 22.5V16.5C24.9961 16.1022 24.8381 15.7206 24.5568 15.4393C24.2754 15.158 23.8939 15 23.4961 15C23.0983 15 22.7167 15.158 22.4354 15.4393C22.1541 15.7206 21.9961 16.1022 21.9961 16.5V20.25Z" fill="#BFC8E8"/>
</svg>
