<svg width="44" height="43" viewBox="0 0 44 43" fill="none" xmlns="http://www.w3.org/2000/svg">
<g clip-path="url(#clip0_2737_3771)">
<path d="M22.6634 12.2853L30.6184 20.2402C30.9852 20.607 30.9852 21.1992 30.6184 21.566C30.2516 21.9329 29.6594 21.9329 29.2925 21.566L21.3376 13.6111C19.2649 11.5384 15.8973 11.5384 13.8246 13.6111C11.7519 15.6838 11.7519 19.0514 13.8246 21.1241L23.9892 31.2888C25.3283 32.6278 27.5115 32.6278 28.8506 31.2888C30.1897 29.9497 30.1897 27.7665 28.8506 26.4274L19.3489 16.9257C19.0558 16.6326 18.6584 16.468 18.244 16.468C17.8296 16.468 17.4322 16.6326 17.1391 16.9257C16.8461 17.2187 16.6815 17.6161 16.6815 18.0305C16.6815 18.4449 16.8461 18.8423 17.1391 19.1354L25.757 27.7532C26.1238 28.12 26.1238 28.7122 25.757 29.0791C25.3902 29.4459 24.798 29.4459 24.4312 29.0791L15.8133 20.4612C14.4742 19.1221 14.4742 16.9389 15.8133 15.5998C17.1524 14.2607 19.3356 14.2608 20.6747 15.5998L30.1764 25.1016C32.2491 27.1743 32.2491 30.5419 30.1764 32.6146C28.1037 34.6873 24.7361 34.6873 22.6634 32.6146L12.4988 22.4499C9.69685 19.648 9.69685 15.0872 12.4988 12.2853C15.3007 9.48336 19.8615 9.48336 22.6634 12.2853Z" fill="#BFC8E8"/>
</g>
<defs>
<clipPath id="clip0_2737_3771">
<rect width="30" height="30" fill="white" transform="matrix(0.707107 -0.707107 -0.707107 -0.707107 22 43)"/>
</clipPath>
</defs>
</svg>
