<svg width="22" height="22" viewBox="0 0 22 22" fill="none" xmlns="http://www.w3.org/2000/svg">
<g clip-path="url(#clip0_74_21)">
<path fill-rule="evenodd" clip-rule="evenodd" d="M20.7778 2.44677H19.3478C19.0953 1.73132 18.627 1.11178 18.0075 0.673554C17.388 0.235331 16.6478 0 15.8889 0C15.13 0 14.3898 0.235331 13.7703 0.673554C13.1508 1.11178 12.6825 1.73132 12.43 2.44677H1.22222C0.898069 2.44677 0.587192 2.57551 0.357981 2.80466C0.128769 3.03381 0 3.3446 0 3.66866C0 3.99273 0.128769 4.30352 0.357981 4.53267C0.587192 4.76182 0.898069 4.89055 1.22222 4.89055H12.43C12.6825 5.60601 13.1508 6.22555 13.7703 6.66377C14.3898 7.10199 15.13 7.33733 15.8889 7.33733C16.6478 7.33733 17.388 7.10199 18.0075 6.66377C18.627 6.22555 19.0953 5.60601 19.3478 4.89055H20.7778C21.1019 4.89055 21.4128 4.76182 21.642 4.53267C21.8712 4.30352 22 3.99273 22 3.66866C22 3.3446 21.8712 3.03381 21.642 2.80466C21.4128 2.57551 21.1019 2.44677 20.7778 2.44677ZM15.8889 4.89055C16.213 4.89055 16.5239 4.76182 16.7531 4.53267C16.9823 4.30352 17.1111 3.99273 17.1111 3.66866C17.1111 3.3446 16.9823 3.03381 16.7531 2.80466C16.5239 2.57551 16.213 2.44677 15.8889 2.44677C15.5647 2.44677 15.2539 2.57551 15.0246 2.80466C14.7954 3.03381 14.6667 3.3446 14.6667 3.66866C14.6667 3.99273 14.7954 4.30352 15.0246 4.53267C15.2539 4.76182 15.5647 4.89055 15.8889 4.89055ZM0 11C0 10.6759 0.128769 10.3651 0.357981 10.136C0.587192 9.90684 0.898069 9.77811 1.22222 9.77811H2.65222C2.90474 9.06265 3.37301 8.44311 3.99251 8.00489C4.61201 7.56667 5.35222 7.33134 6.11111 7.33134C6.87001 7.33134 7.61022 7.56667 8.22971 8.00489C8.84921 8.44311 9.31749 9.06265 9.57 9.77811H20.7778C21.1019 9.77811 21.4128 9.90684 21.642 10.136C21.8712 10.3651 22 10.6759 22 11C22 11.3241 21.8712 11.6349 21.642 11.864C21.4128 12.0932 21.1019 12.2219 20.7778 12.2219H9.57C9.31749 12.9373 8.84921 13.5569 8.22971 13.9951C7.61022 14.4333 6.87001 14.6687 6.11111 14.6687C5.35222 14.6687 4.61201 14.4333 3.99251 13.9951C3.37301 13.5569 2.90474 12.9373 2.65222 12.2219H1.22222C0.898069 12.2219 0.587192 12.0932 0.357981 11.864C0.128769 11.6349 0 11.3241 0 11ZM6.11111 12.2219C6.43527 12.2219 6.74614 12.0932 6.97535 11.864C7.20456 11.6349 7.33333 11.3241 7.33333 11C7.33333 10.6759 7.20456 10.3651 6.97535 10.136C6.74614 9.90684 6.43527 9.77811 6.11111 9.77811C5.78696 9.77811 5.47608 9.90684 5.24687 10.136C5.01766 10.3651 4.88889 10.6759 4.88889 11C4.88889 11.3241 5.01766 11.6349 5.24687 11.864C5.47608 12.0932 5.78696 12.2219 6.11111 12.2219ZM1.22222 17.1094C0.898069 17.1094 0.587192 17.2382 0.357981 17.4673C0.128769 17.6965 0 18.0073 0 18.3313C0 18.6554 0.128769 18.9662 0.357981 19.1953C0.587192 19.4245 0.898069 19.5532 1.22222 19.5532H12.43C12.6825 20.2687 13.1508 20.8882 13.7703 21.3264C14.3898 21.7647 15.13 22 15.8889 22C16.6478 22 17.388 21.7647 18.0075 21.3264C18.627 20.8882 19.0953 20.2687 19.3478 19.5532H20.7778C21.1019 19.5532 21.4128 19.4245 21.642 19.1953C21.8712 18.9662 22 18.6554 22 18.3313C22 18.0073 21.8712 17.6965 21.642 17.4673C21.4128 17.2382 21.1019 17.1094 20.7778 17.1094H19.3478C19.0953 16.394 18.627 15.7744 18.0075 15.3362C17.388 14.898 16.6478 14.6627 15.8889 14.6627C15.13 14.6627 14.3898 14.898 13.7703 15.3362C13.1508 15.7744 12.6825 16.394 12.43 17.1094H1.22222ZM17.1111 18.3313C17.1111 18.6554 16.9823 18.9662 16.7531 19.1953C16.5239 19.4245 16.213 19.5532 15.8889 19.5532C15.5647 19.5532 15.2539 19.4245 15.0246 19.1953C14.7954 18.9662 14.6667 18.6554 14.6667 18.3313C14.6667 18.0073 14.7954 17.6965 15.0246 17.4673C15.2539 17.2382 15.5647 17.1094 15.8889 17.1094C16.213 17.1094 16.5239 17.2382 16.7531 17.4673C16.9823 17.6965 17.1111 18.0073 17.1111 18.3313Z" fill="#3F52B6"/>
<circle cx="16" cy="4" r="3" fill="#FABB18" stroke="#F2F5FF" stroke-width="2"/>
</g>
<defs>
<clipPath id="clip0_74_21">
<rect width="22" height="22" fill="white"/>
</clipPath>
</defs>
</svg>
