<svg width="22" height="22" viewBox="0 0 22 22" fill="none" xmlns="http://www.w3.org/2000/svg">
<path d="M21.0833 13.0833C20.8083 13.0833 20.625 13.175 20.4416 13.3583L15.8583 17.9417C15.4916 18.3083 15.4916 18.8583 15.8583 19.225C16.225 19.5917 16.775 19.5917 17.1416 19.225L21.725 14.6417C22.0916 14.275 22.0916 13.725 21.725 13.3583C21.5416 13.175 21.3583 13.0833 21.0833 13.0833Z" fill="#3F52B6"/>
<path d="M11.9167 13.0833C11.6417 13.0833 11.4583 13.175 11.275 13.3583C10.9083 13.725 10.9083 14.275 11.275 14.6417L15.8583 19.225C16.225 19.5917 16.775 19.5917 17.1417 19.225C17.5083 18.8583 17.5083 18.3083 17.1417 17.9417L12.5583 13.3583C12.375 13.175 12.1917 13.0833 11.9167 13.0833Z" fill="#3F52B6"/>
<path d="M16.5 3C15.95 3 15.5833 3.36667 15.5833 3.91667V18.5833C15.5833 19.1333 15.95 19.5 16.5 19.5C17.05 19.5 17.4166 19.1333 17.4166 18.5833V3.91667C17.4166 3.36667 17.05 3 16.5 3Z" fill="#3F52B6"/>
<path d="M10.0833 9.41667C9.80831 9.41667 9.62498 9.325 9.44165 9.14167L4.85831 4.55833C4.49165 4.19167 4.49165 3.64167 4.85831 3.275C5.22498 2.90833 5.77498 2.90833 6.14165 3.275L10.725 7.85833C11.0916 8.225 11.0916 8.775 10.725 9.14167C10.5416 9.325 10.3583 9.41667 10.0833 9.41667Z" fill="#3F52B6"/>
<path d="M0.916667 9.41667C0.641667 9.41667 0.458333 9.325 0.275 9.14167C-0.0916667 8.775 -0.0916667 8.225 0.275 7.85833L4.85833 3.275C5.225 2.90833 5.775 2.90833 6.14167 3.275C6.50833 3.64167 6.50833 4.19167 6.14167 4.55833L1.55833 9.14167C1.375 9.325 1.19167 9.41667 0.916667 9.41667Z" fill="#3F52B6"/>
<path d="M5.49998 19.5C4.94998 19.5 4.58331 19.1333 4.58331 18.5833V3.91667C4.58331 3.36667 4.94998 3 5.49998 3C6.04998 3 6.41665 3.36667 6.41665 3.91667V18.5833C6.41665 19.1333 6.04998 19.5 5.49998 19.5Z" fill="#3F52B6"/>
</svg>
