<svg width="24" height="24" viewBox="0 0 24 24" fill="none" xmlns="http://www.w3.org/2000/svg">
<path d="M18.252 3.60375L20.3963 5.748L11.475 15H9V12.525L18.252 3.60375ZM18.2715 5.55938e-07C17.874 5.55938e-07 17.4938 0.157501 17.214 0.438001L6 11.25V18H12.75L23.562 6.7875C24.1463 6.2025 24.1463 5.25525 23.562 4.671L19.3298 0.438751C19.1909 0.299524 19.026 0.189092 18.8444 0.113798C18.6628 0.0385038 18.4681 -0.000169123 18.2715 5.55938e-07Z" fill="#BFC8E8"/>
<path d="M21 20.25C21 20.4489 20.921 20.6397 20.7803 20.7803C20.6397 20.921 20.4489 21 20.25 21H3.75C3.55109 21 3.36032 20.921 3.21967 20.7803C3.07902 20.6397 3 20.4489 3 20.25V3.75C3 3.55109 3.07902 3.36032 3.21967 3.21967C3.36032 3.07902 3.55109 3 3.75 3H7.5C7.89782 3 8.27936 2.84196 8.56066 2.56066C8.84196 2.27936 9 1.89782 9 1.5C9 1.10218 8.84196 0.720644 8.56066 0.43934C8.27936 0.158035 7.89782 0 7.5 0L1.5 0C1.10218 0 0.720644 0.158035 0.43934 0.43934C0.158035 0.720644 0 1.10218 0 1.5L0 22.5C0 22.8978 0.158035 23.2794 0.43934 23.5607C0.720644 23.842 1.10218 24 1.5 24H22.5C22.8978 24 23.2794 23.842 23.5607 23.5607C23.842 23.2794 24 22.8978 24 22.5V16.5C24 16.1022 23.842 15.7206 23.5607 15.4393C23.2794 15.158 22.8978 15 22.5 15C22.1022 15 21.7206 15.158 21.4393 15.4393C21.158 15.7206 21 16.1022 21 16.5V20.25Z" fill="#BFC8E8"/>
</svg>
