<svg width="18" height="18" viewBox="0 0 18 18" fill="none" xmlns="http://www.w3.org/2000/svg">
<path d="M9.46566 16.191C9.03639 16.191 8.632 15.9733 8.34581 15.5938L7.4126 14.3495C7.39393 14.3246 7.31928 14.2935 7.28817 14.2873H6.9771C4.38277 14.2873 2.77765 13.5842 2.77765 10.0878V6.9771C2.77765 4.22724 4.22724 2.77765 6.9771 2.77765H11.9542C14.7041 2.77765 16.1537 4.22724 16.1537 6.9771V10.0878C16.1537 12.8377 14.7041 14.2873 11.9542 14.2873H11.6432C11.5934 14.2873 11.5498 14.3121 11.5187 14.3495L10.5855 15.5938C10.2993 15.9733 9.89494 16.191 9.46566 16.191ZM6.9771 3.71086C4.74984 3.71086 3.71086 4.74984 3.71086 6.9771V10.0878C3.71086 12.8999 4.67518 13.354 6.9771 13.354H7.28817C7.60546 13.354 7.9663 13.5345 8.15917 13.7895L9.09238 15.0338C9.31013 15.32 9.6212 15.32 9.83895 15.0338L10.7722 13.7895C10.9775 13.5158 11.301 13.354 11.6432 13.354H11.9542C14.1815 13.354 15.2205 12.3151 15.2205 10.0878V6.9771C15.2205 4.74984 14.1815 3.71086 11.9542 3.71086H6.9771Z" fill="#7F7F7F"/>
<path d="M9.46565 9.46572C9.11725 9.46572 8.84351 9.18575 8.84351 8.84358C8.84351 8.5014 9.12347 8.22144 9.46565 8.22144C9.80782 8.22144 10.0878 8.5014 10.0878 8.84358C10.0878 9.18575 9.81405 9.46572 9.46565 9.46572Z" fill="#7F7F7F"/>
<path d="M11.9542 9.46572C11.6058 9.46572 11.3321 9.18575 11.3321 8.84358C11.3321 8.5014 11.6121 8.22144 11.9542 8.22144C12.2964 8.22144 12.5764 8.5014 12.5764 8.84358C12.5764 9.18575 12.3026 9.46572 11.9542 9.46572Z" fill="#7F7F7F"/>
<path d="M6.97712 9.46572C6.62872 9.46572 6.35498 9.18575 6.35498 8.84358C6.35498 8.5014 6.63494 8.22144 6.97712 8.22144C7.3193 8.22144 7.59926 8.5014 7.59926 8.84358C7.59926 9.18575 7.32552 9.46572 6.97712 9.46572Z" fill="#7F7F7F"/>
</svg>
