<svg width="18" height="18" viewBox="0 0 18 18" fill="none" xmlns="http://www.w3.org/2000/svg">
<path d="M9.15711 17.6706C9.0539 17.6706 8.95068 17.6469 8.85754 17.5987L5.85591 16.0449C5.00418 15.6035 4.33789 15.1082 3.81762 14.5312C2.6789 13.2692 2.04535 11.6492 2.03528 9.96872L2.00003 4.4377C1.99584 3.79935 2.40786 3.22639 3.02379 3.01061L8.5353 1.08901C8.86257 0.97213 9.2276 0.970495 9.56074 1.08329L15.0932 2.9395C15.7125 3.14629 16.1313 3.71516 16.1346 4.3527L16.1699 9.8878C16.1808 11.5658 15.569 13.1924 14.4479 14.4682C13.9335 15.0535 13.2731 15.5561 12.4298 16.0057L9.45501 17.5946C9.3627 17.6445 9.26033 17.6698 9.15711 17.6706" fill="#3F52B6"/>
<path d="M8.51746 11.2699C8.35634 11.2707 8.19523 11.2126 8.07103 11.0933L6.4733 9.55669C6.22659 9.31803 6.22407 8.9306 6.46826 8.6903C6.71245 8.44918 7.11105 8.44673 7.3586 8.68458L8.50823 9.78964L11.3152 7.02209C11.5602 6.78097 11.9588 6.77852 12.2055 7.01636C12.4531 7.25503 12.4556 7.64327 12.2114 7.88276L8.96137 11.0876C8.83885 11.2086 8.67857 11.269 8.51746 11.2699" fill="white"/>
</svg>
