<svg width="23" height="22" viewBox="0 0 23 22" fill="none" xmlns="http://www.w3.org/2000/svg">
<path fill-rule="evenodd" clip-rule="evenodd" d="M9.35326 13.9689C9.16926 13.9689 8.98526 13.9036 8.84534 13.7721C8.13809 13.1129 7.74805 12.2363 7.74805 11.3043C7.74805 9.37232 9.43088 7.80078 11.499 7.80078C12.4937 7.80078 13.4597 8.17555 14.1488 8.82939C14.4267 9.09415 14.4238 9.51811 14.1401 9.7775C13.8574 10.0387 13.4032 10.0342 13.1243 9.77124C12.7036 9.37143 12.1113 9.14245 11.499 9.14245C10.2234 9.14245 9.18555 10.112 9.18555 11.3043C9.18555 11.8777 9.42609 12.4179 9.86117 12.824C10.142 13.0861 10.142 13.51 9.86213 13.7721C9.72126 13.9036 9.53726 13.9689 9.35326 13.9689Z" fill="#FABB18"/>
<path fill-rule="evenodd" clip-rule="evenodd" d="M12.0422 14.7503C11.702 14.7503 11.3992 14.5231 11.3359 14.1993C11.265 13.8353 11.5238 13.4855 11.9148 13.4194C12.8539 13.2601 13.5976 12.5643 13.7663 11.6868C13.8372 11.3228 14.2109 11.0831 14.601 11.1457C14.992 11.211 15.2517 11.5598 15.1817 11.9247C14.9067 13.3496 13.6973 14.4802 12.1716 14.7396C12.1285 14.7467 12.0844 14.7503 12.0422 14.7503Z" fill="#FABB18"/>
<mask id="mask0_3454_4704" style="mask-type:luminance" maskUnits="userSpaceOnUse" x="1" y="4" width="17" height="13">
<path fill-rule="evenodd" clip-rule="evenodd" d="M1.91602 4.13672H17.332V16.7467H1.91602V4.13672Z" fill="white"/>
</mask>
<g mask="url(#mask0_3454_4704)">
<path fill-rule="evenodd" clip-rule="evenodd" d="M6.37658 16.7467C6.22133 16.7467 6.06512 16.6993 5.93287 16.6036C4.31233 15.4158 2.94287 13.6743 1.97495 11.5688C1.89637 11.3988 1.89637 11.2074 1.97495 11.0384C2.95341 8.9239 4.33149 7.17347 5.96066 5.9776C9.28225 3.52414 13.704 3.51609 17.0591 5.99549C17.3706 6.22536 17.4233 6.64754 17.177 6.93823C16.9297 7.22714 16.4793 7.27812 16.1669 7.04735C13.3245 4.9472 9.6627 4.95435 6.85095 7.03126C5.47479 8.04198 4.29316 9.51423 3.42108 11.3049C4.28454 13.0849 5.45562 14.5482 6.82125 15.5482C7.13366 15.7771 7.18733 16.1993 6.942 16.49C6.80016 16.6582 6.58933 16.7467 6.37658 16.7467Z" fill="#FABB18"/>
</g>
<mask id="mask1_3454_4704" style="mask-type:luminance" maskUnits="userSpaceOnUse" x="8" y="7" width="14" height="12">
<path fill-rule="evenodd" clip-rule="evenodd" d="M8.35352 7.81836H21.0826V18.5054H8.35352V7.81836Z" fill="white"/>
</mask>
<g mask="url(#mask1_3454_4704)">
<path fill-rule="evenodd" clip-rule="evenodd" d="M11.4994 18.5054C10.6014 18.5054 9.70825 18.3694 8.84575 18.102C8.46912 17.9848 8.265 17.6047 8.39054 17.2531C8.51608 16.9007 8.92145 16.7138 9.3 16.8283C10.0159 17.051 10.7557 17.1637 11.4994 17.1637C14.7845 17.1637 17.787 14.9795 19.5781 11.3024C19.1411 10.4089 18.6322 9.59938 18.063 8.89277C17.8244 8.59671 17.8876 8.17543 18.2048 7.95271C18.5211 7.72999 18.9725 7.79081 19.2111 8.08598C19.9049 8.94554 20.5144 9.93927 21.0233 11.0359C21.1028 11.2058 21.1028 11.399 21.0233 11.5681C19.0146 15.9124 15.4544 18.5054 11.4994 18.5054Z" fill="#FABB18"/>
</g>
<mask id="mask2_3454_4704" style="mask-type:luminance" maskUnits="userSpaceOnUse" x="3" y="3" width="17" height="17">
<path fill-rule="evenodd" clip-rule="evenodd" d="M3.22266 3.57812H19.7764V19.0279H3.22266V3.57812Z" fill="white"/>
</mask>
<g mask="url(#mask2_3454_4704)">
<path fill-rule="evenodd" clip-rule="evenodd" d="M3.94117 19.0276C3.75717 19.0276 3.57317 18.9623 3.43325 18.8308C3.15246 18.5687 3.15246 18.1447 3.43325 17.8827L18.55 3.7737C18.8308 3.51163 19.285 3.51163 19.5658 3.7737C19.8466 4.03577 19.8466 4.46064 19.5658 4.72271L4.44908 18.8308C4.30917 18.9623 4.12517 19.0276 3.94117 19.0276Z" fill="#FABB18"/>
</g>
</svg>
