<svg width="18" height="18" viewBox="0 0 18 18" fill="none" xmlns="http://www.w3.org/2000/svg">
<path d="M9.1482 3.04942L13.9212 7.82239C14.1413 8.04248 14.1413 8.3978 13.9212 8.61789C13.7011 8.83797 13.3458 8.83797 13.1257 8.61789L8.3527 3.84492C7.10908 2.60129 5.08852 2.60129 3.8449 3.84492C2.60127 5.08854 2.60127 7.1091 3.8449 8.35272L9.94369 14.4515C10.7471 15.255 12.0571 15.255 12.8605 14.4515C13.664 13.6481 13.664 12.3382 12.8605 11.5347L7.15946 5.83365C6.98364 5.65784 6.74519 5.55907 6.49655 5.55907C6.24791 5.55907 6.00945 5.65784 5.83363 5.83365C5.65782 6.00947 5.55905 6.24793 5.55905 6.49657C5.55905 6.74521 5.65782 6.98366 5.83363 7.15948L11.0044 12.3302C11.2244 12.5503 11.2244 12.9056 11.0044 13.1257C10.7843 13.3458 10.4289 13.3458 10.2089 13.1257L5.03814 7.95497C4.23469 7.15152 4.23469 5.84161 5.03814 5.03816C5.84159 4.23471 7.1515 4.23471 7.95495 5.03816L13.656 10.7392C14.8996 11.9828 14.8996 14.0034 13.656 15.247C12.4124 16.4906 10.3918 16.4906 9.1482 15.247L3.0494 9.14822C1.36825 7.46707 1.36825 4.73057 3.0494 3.04942C4.73055 1.36827 7.46705 1.36827 9.1482 3.04942Z" fill="#7F7F7F"/>
</svg>
