<svg width="23" height="23" viewBox="0 0 23 23" fill="none" xmlns="http://www.w3.org/2000/svg">
<path d="M15.4756 13.3867C16.1494 12.3266 16.5447 11.0688 16.5447 9.7166C16.5447 5.93867 13.4855 2.875 9.71211 2.875C5.93418 2.875 2.875 5.93867 2.875 9.7166C2.875 13.4945 5.93418 16.5582 9.70762 16.5582C11.0777 16.5582 12.3535 16.1539 13.4227 15.4621L13.7326 15.2465L18.6111 20.125L20.125 18.5842L15.251 13.7057L15.4756 13.3867ZM13.5395 5.89375C14.5592 6.91348 15.1207 8.27012 15.1207 9.71211C15.1207 11.1541 14.5592 12.5107 13.5395 13.5305C12.5197 14.5502 11.1631 15.1117 9.72109 15.1117C8.2791 15.1117 6.92246 14.5502 5.90273 13.5305C4.88301 12.5107 4.32148 11.1541 4.32148 9.71211C4.32148 8.27012 4.88301 6.91348 5.90273 5.89375C6.92246 4.87402 8.2791 4.3125 9.72109 4.3125C11.1631 4.3125 12.5197 4.87402 13.5395 5.89375Z" fill="#3F52B6"/>
</svg>
